<svg id="Capa_1" enable-background="new 0 0 512 512" height="512" viewBox="0 0 512 512" width="512" xmlns="http://www.w3.org/2000/svg"><g><path d="m512 85.333h-512v-64.52c0-11.495 9.318-20.813 20.813-20.813h470.374c11.495 0 20.813 9.318 20.813 20.813z" fill="#80b4fb"/><path d="m491.187 0h-31.22c11.495 0 20.813 9.318 20.813 20.813v64.52h31.22v-64.52c0-11.495-9.318-20.813-20.813-20.813z" fill="#61a2f9"/><path d="m0 85.333h512v341.333c0 11.495-9.318 20.813-20.813 20.813h-470.374c-11.495.001-20.813-9.318-20.813-20.812z" fill="#e4f6ff"/><path d="m480.78 85.333v341.333c0 11.495-9.318 20.813-20.813 20.813h31.22c11.495 0 20.813-9.318 20.813-20.813v-341.333z" fill="#b9e4ef"/><circle cx="444.358" cy="42.667" fill="#a2f4c1" r="12.488"/><circle cx="401.691" cy="42.667" fill="#ffe07d" r="12.488"/><circle cx="359.024" cy="42.667" fill="#e278b1" r="12.488"/><g><g><path d="m114.472 274.836v-145.9c0-5.69 4.612-10.302 10.302-10.302h262.453c5.69 0 10.302 4.612 10.302 10.302v145.9c0 5.69-4.612 10.302-10.302 10.302h-262.454c-5.689 0-10.301-4.612-10.301-10.302z" fill="#80b4fb"/><path d="m397.526 128.937v145.894c0 2.854-1.164 5.439-3.039 7.304-1.865 1.854-4.43 2.998-7.263 2.998h-262.448c-2.833 0-5.398-1.144-7.263-2.998-1.875-1.865-3.039-4.45-3.039-7.304v-145.894c0-5.687 4.615-10.302 10.302-10.302h262.449c5.686.001 10.301 4.616 10.301 10.302z" fill="#80b4fb"/><path d="m397.526 128.937v145.894c0 2.854-1.164 5.439-3.039 7.304-1.865 1.854-4.43 2.998-7.263 2.998h-14.67v-166.497h14.67c5.687 0 10.302 4.615 10.302 10.301z" fill="#61a2f9"/><path d="m394.487 282.136c-1.865 1.854-4.43 2.998-7.263 2.998h-205.716l100.115-100.106c4.006-4.005 10.494-4.025 14.523-.044l76.408 75.477z" fill="#66b49d"/><path d="m286.669 285.134h-161.893c-2.833 0-5.398-1.144-7.263-2.998l76.428-75.272c4.032-3.971 10.512-3.946 14.513.055l25.634 25.634z" fill="#a2f4c1"/></g><g><path d="m208.13 174.829h47.87v335.089h-47.87z" fill="#9bb9c1" transform="matrix(0 1 -1 0 574.439 110.309)"/><path d="m399.61 366.309v-47.87h37.568c5.69 0 10.302 4.612 10.302 10.302v27.266c0 5.69-4.612 10.302-10.302 10.302z" fill="#a2f4c1"/></g></g><g><g><path d="m20.708 512h-10.406c-5.69 0-10.302-4.612-10.302-10.302v-10.407c0-2.732 1.085-5.353 3.017-7.284l33.405-33.405 24.976 24.976-33.405 33.405c-1.932 1.932-4.552 3.017-7.285 3.017z" fill="#ffe07d"/></g><g><path d="m62.231 476.41-26.641-26.641c-2.414-2.414-2.414-6.328 0-8.741l21.646-21.646 35.382 35.382-21.646 21.646c-2.414 2.414-6.327 2.414-8.741 0z" fill="#634086"/></g><circle cx="152.976" cy="359.024" fill="#845caf" r="114.472"/><path d="m224.01 269.259c15.467 19.519 24.706 44.196 24.706 71.034 0 63.221-51.251 114.472-114.472 114.472-26.838 0-51.515-9.239-71.034-24.706 20.967 26.461 53.383 43.437 89.766 43.437 63.221 0 114.472-51.251 114.472-114.472-.001-36.383-16.978-68.798-43.438-89.765z" fill="#734d9d"/><circle cx="152.976" cy="359.024" fill="#80b4fb" r="81.171"/><path d="m200.504 293.284c9.694 13.371 15.431 29.788 15.431 47.529 0 44.758-36.413 81.171-81.171 81.171-17.741 0-34.158-5.737-47.529-15.431 14.763 20.362 38.723 33.642 65.74 33.642 44.758 0 81.171-36.413 81.171-81.171 0-27.017-13.28-50.977-33.642-65.74z" fill="#61a2f9"/></g></g></svg>